<svg width="183" height="38" viewBox="0 0 183 38" fill="none" xmlns="http://www.w3.org/2000/svg">
<path d="M51.2826 16.9603C49.8819 16.9603 48.7951 17.5157 47.974 18.5542C47.3461 17.5157 46.3077 16.9603 45.0518 16.9603C43.8443 16.9603 42.8058 17.4916 42.1538 18.4576V17.8538C42.1538 17.4916 41.9606 17.2742 41.5983 17.2742H39.618C39.2557 17.2742 39.0384 17.4916 39.0384 17.8538V28.7939C39.0384 29.1562 39.2557 29.3494 39.618 29.3494H41.5983C41.9606 29.3494 42.1538 29.1562 42.1538 28.7939V21.8869C42.1538 20.3172 43.0957 19.8342 43.9409 19.8342C44.7862 19.8342 45.4865 20.2447 45.4865 21.4522V28.7939C45.4865 29.1562 45.7039 29.3494 46.0661 29.3494H48.0223C48.4087 29.3494 48.6019 29.1562 48.6019 28.7939V21.8869C48.6019 20.3172 49.5438 19.8342 50.3891 19.8342C51.2102 19.8342 51.9347 20.2447 51.9347 21.4522V28.7939C51.9347 29.1562 52.1279 29.3494 52.5143 29.3494H54.4705C54.8327 29.3494 55.0501 29.1562 55.0501 28.7939V21.2107C55.0501 18.4334 53.5769 16.9603 51.2826 16.9603Z" fill="#343541"/>
<path d="M63.3965 29.6875C66.9224 29.6875 69.7722 26.9102 69.7722 23.3118C69.7722 19.7376 66.9224 16.9603 63.3965 16.9603C59.8464 16.9603 56.9966 19.7376 56.9966 23.3118C56.9966 26.9102 59.8464 29.6875 63.3965 29.6875ZM63.3965 26.6446C61.5369 26.6446 60.112 25.268 60.112 23.3118C60.112 21.3556 61.5369 19.9791 63.3965 19.9791C65.2319 19.9791 66.6568 21.3556 66.6568 23.3118C66.6568 25.268 65.2319 26.6446 63.3965 26.6446Z" fill="#343541"/>
<path d="M78.4361 16.9603C76.9388 16.9603 75.8279 17.5157 75.1517 18.53V17.8538C75.1517 17.4916 74.9585 17.2742 74.5721 17.2742H72.6159C72.2536 17.2742 72.0363 17.4916 72.0363 17.8538V28.7939C72.0363 29.1562 72.2536 29.3494 72.6159 29.3494H74.5721C74.9585 29.3494 75.1517 29.1562 75.1517 28.7939V22.3699C75.1517 20.5587 76.1177 19.8342 77.3252 19.8342C78.4361 19.8342 79.2572 20.4862 79.2572 21.8869V28.7939C79.2572 29.1562 79.4504 29.3494 79.8127 29.3494H81.793C82.1553 29.3494 82.3726 29.1562 82.3726 28.7939V21.6454C82.3726 18.6749 80.6821 16.9603 78.4361 16.9603Z" fill="#343541"/>
<path d="M90.6375 17.2742H89.1402V13.9898C89.1402 13.6275 88.947 13.4102 88.5606 13.4102H86.6044C86.2422 13.4102 86.0248 13.6275 86.0248 13.9898V17.2742H84.5275C84.1411 17.2742 83.9479 17.4916 83.9479 17.8538V19.7134C83.9479 20.0757 84.1411 20.2689 84.5275 20.2689H86.0248V28.7939C86.0248 29.1562 86.2422 29.3494 86.6044 29.3494H88.5606C88.947 29.3494 89.1402 29.1562 89.1402 28.7939V20.2689H90.6375C91.0239 20.2689 91.2172 20.0757 91.2172 19.7134V17.8538C91.2172 17.4916 91.0239 17.2742 90.6375 17.2742Z" fill="#343541"/>
<path d="M98.5658 16.9603C94.7742 16.9603 92.166 19.7376 92.166 23.3118C92.166 26.9344 94.7018 29.6875 98.6383 29.6875C101.102 29.6875 103.082 28.5524 104 26.5238C104.169 26.1616 103.951 25.8959 103.517 25.8959H101.585C101.295 25.8959 101.102 26.0166 100.884 26.234C100.401 26.7412 99.6043 27.1034 98.6866 27.1034C97.141 27.1034 95.8369 26.3306 95.4021 24.6159H101.464H103.951C104.289 24.6159 104.531 24.4469 104.555 24.0846C104.579 23.8431 104.603 23.6016 104.603 23.336C104.603 19.7617 102.14 16.9603 98.5658 16.9603ZM95.4021 22.1526C95.7644 20.6553 96.8995 19.7617 98.5417 19.7617C99.8458 19.7617 101.126 20.4379 101.488 22.1526H95.4021Z" fill="#343541"/>
<path d="M118.172 24.954H116.022C115.684 24.954 115.491 25.0989 115.322 25.3645C114.815 26.1374 113.897 26.6204 112.81 26.6204C110.951 26.6204 109.526 25.2438 109.526 23.3118C109.526 21.4039 110.951 20.0273 112.81 20.0273C113.897 20.0273 114.815 20.4862 115.322 21.2831C115.491 21.5488 115.708 21.6937 116.022 21.6937H118.172C118.582 21.6937 118.8 21.428 118.655 21.0416C117.882 18.6266 115.564 16.9602 112.81 16.9602C109.14 16.9602 106.411 19.7375 106.411 23.3118C106.411 26.9102 109.14 29.6875 112.81 29.6875C115.564 29.6875 117.882 28.0211 118.655 25.606C118.8 25.1955 118.582 24.954 118.172 24.954Z" fill="#EC1115"/>
<path d="M121.369 15.5836H123.35C123.712 15.5836 123.905 15.3904 123.905 15.0282V13.0237C123.905 12.6614 123.712 12.4441 123.35 12.4441H121.369C121.007 12.4441 120.79 12.6614 120.79 13.0237V15.0282C120.79 15.3904 121.007 15.5836 121.369 15.5836ZM121.369 29.3494H123.35C123.712 29.3494 123.905 29.1561 123.905 28.7939V17.8538C123.905 17.4915 123.712 17.2742 123.35 17.2742H121.369C121.007 17.2742 120.79 17.4915 120.79 17.8538V28.7939C120.79 29.1561 121.007 29.3494 121.369 29.3494Z" fill="#EC1115"/>
<path d="M133.229 16.9602C131.732 16.9602 130.621 17.5157 129.944 18.53V17.8538C129.944 17.4915 129.751 17.2742 129.365 17.2742H127.409C127.046 17.2742 126.829 17.4915 126.829 17.8538V28.7939C126.829 29.1561 127.046 29.3494 127.409 29.3494H129.365C129.751 29.3494 129.944 29.1561 129.944 28.7939V22.3699C129.944 20.5586 130.911 19.8341 132.118 19.8341C133.229 19.8341 134.05 20.4862 134.05 21.8869V28.7939C134.05 29.1561 134.243 29.3494 134.606 29.3494H136.586C136.948 29.3494 137.165 29.1561 137.165 28.7939V21.6454C137.165 18.6749 135.475 16.9602 133.229 16.9602Z" fill="#EC1115"/>
<path d="M145.527 16.9602C141.735 16.9602 139.127 19.7375 139.127 23.3118C139.127 26.9343 141.663 29.6875 145.599 29.6875C148.063 29.6875 150.043 28.5524 150.961 26.5238C151.13 26.1615 150.912 25.8958 150.478 25.8958H148.546C148.256 25.8958 148.063 26.0166 147.845 26.234C147.362 26.7411 146.565 27.1034 145.648 27.1034C144.102 27.1034 142.798 26.3306 142.363 24.6159H148.425H150.912C151.251 24.6159 151.492 24.4468 151.516 24.0846C151.54 23.8431 151.565 23.6016 151.565 23.3359C151.565 19.7617 149.101 16.9602 145.527 16.9602ZM142.363 22.1525C142.726 20.6552 143.861 19.7617 145.503 19.7617C146.807 19.7617 148.087 20.4379 148.449 22.1525H142.363Z" fill="#EC1115"/>
<path d="M165.986 16.9602C164.586 16.9602 163.499 17.5157 162.678 18.5541C162.05 17.5157 161.011 16.9602 159.756 16.9602C158.548 16.9602 157.51 17.4915 156.858 18.4575V17.8538C156.858 17.4915 156.664 17.2742 156.302 17.2742H154.322C153.96 17.2742 153.742 17.4915 153.742 17.8538V28.7939C153.742 29.1561 153.96 29.3494 154.322 29.3494H156.302C156.664 29.3494 156.858 29.1561 156.858 28.7939V21.8869C156.858 20.3171 157.799 19.8341 158.645 19.8341C159.49 19.8341 160.19 20.2447 160.19 21.4522V28.7939C160.19 29.1561 160.408 29.3494 160.77 29.3494H162.726C163.113 29.3494 163.306 29.1561 163.306 28.7939V21.8869C163.306 20.3171 164.248 19.8341 165.093 19.8341C165.914 19.8341 166.639 20.2447 166.639 21.4522V28.7939C166.639 29.1561 166.832 29.3494 167.218 29.3494H169.174C169.537 29.3494 169.754 29.1561 169.754 28.7939V21.2107C169.754 18.4334 168.281 16.9602 165.986 16.9602Z" fill="#EC1115"/>
<path d="M177.183 16.9602C174.695 16.9602 172.594 18.3126 172.28 20.8001C172.256 21.1865 172.497 21.3797 172.86 21.3797H174.792C175.13 21.3797 175.251 21.2107 175.395 20.8726C175.589 20.2205 176.265 19.8341 177.183 19.8341C178.318 19.8341 179.042 20.4379 179.042 21.8627V23.1669C178.342 22.5389 177.303 22.0801 175.782 22.0801C173.633 22.0801 171.7 23.3601 171.7 25.8958C171.7 28.4316 173.633 29.6875 175.782 29.6875C177.303 29.6875 178.342 29.1561 179.042 28.3109V28.7939C179.042 29.1561 179.26 29.3735 179.622 29.3735H181.506C181.892 29.3735 182.085 29.1561 182.085 28.7939V21.6937C182.085 18.5541 179.839 16.9602 177.183 16.9602ZM176.82 27.3932C175.468 27.3932 174.816 26.7653 174.816 25.8958C174.816 25.0264 175.468 24.3985 176.82 24.3985C178.197 24.3985 179.042 24.954 179.042 25.8958C179.042 26.7653 178.197 27.3932 176.82 27.3932Z" fill="#EC1115"/>
<path fill-rule="evenodd" clip-rule="evenodd" d="M32.6353 1.33362L22.2573 11.7254H5.38204C4.93709 11.7254 4.4199 12.0505 4.22733 12.4506L0.0988525 21.0275C-0.093927 21.428 0.00363719 22.007 0.318571 22.3225L10.123 32.1445L11.7985 33.8216L13.02 35.0462L15.3554 37.3855C15.6694 37.7 16.1778 37.7007 16.4922 37.3857L29.4601 24.3922C29.7739 24.0778 30.0283 23.4623 30.0283 23.0164V17.4549L31.1466 16.31C31.4569 15.9924 31.7084 15.3743 31.7084 14.9296V10.489L32.6353 9.59797L33.7964 8.43392C34.1106 8.11895 34.3653 7.50331 34.3653 7.06016V1.21181C34.3653 0.322545 33.8556 0.111937 33.2282 0.740001L32.6353 1.33362ZM11.2883 30.9198L27.0144 15.2636L29.9774 12.2778V15.6247L28.8547 16.7601L28.3016 17.3207L28.1061 17.5202L12.9641 32.592L11.2883 30.9198ZM15.8982 35.5173L14.2136 33.8401L28.3403 19.7677L28.3523 19.7534V23.1077L15.8982 35.5173ZM32.7402 7.17139L28.3979 11.5069L27.6246 12.2771L26.3255 13.5749L10.2006 29.6668L8.52556 27.9958L23.0658 13.4846L32.7402 3.82703V7.17139Z" fill="#EC1115"/>
</svg>
