<svg width="32" height="32" viewBox="0 0 32 32" fill="none" xmlns="http://www.w3.org/2000/svg">
<path d="M19.0397 26.39L19.0517 26.397C20.1138 27.0732 21.3748 27.3669 22.6264 27.2297C23.878 27.0924 25.0454 26.5323 25.9357 25.642L26.7097 24.868C27.0554 24.5219 27.2496 24.0527 27.2496 23.5635C27.2496 23.0743 27.0554 22.6051 26.7097 22.259L23.4487 19C23.1026 18.6543 22.6334 18.4601 22.1442 18.4601C21.655 18.4601 21.1858 18.6543 20.8397 19V19C20.6685 19.1714 20.4653 19.3073 20.2415 19.4001C20.0178 19.4929 19.7779 19.5406 19.5357 19.5406C19.2935 19.5406 19.0537 19.4929 18.8299 19.4001C18.6062 19.3073 18.4029 19.1714 18.2317 19L13.0137 13.781C12.668 13.4349 12.4739 12.9657 12.4739 12.4765C12.4739 11.9873 12.668 11.5181 13.0137 11.172V11.172C13.1851 11.0008 13.3211 10.7976 13.4138 10.5738C13.5066 10.3501 13.5543 10.1102 13.5543 9.86799C13.5543 9.62578 13.5066 9.38594 13.4138 9.16218C13.3211 8.93843 13.1851 8.73516 13.0137 8.56399L9.75372 5.29999C9.40759 4.9543 8.9384 4.76013 8.44922 4.76013C7.96003 4.76013 7.49084 4.9543 7.14472 5.29999L6.37072 6.07399C5.48054 6.96437 4.92053 8.13164 4.78309 9.38315C4.64565 10.6347 4.93899 11.8956 5.61472 12.958L5.62272 12.97C9.19613 18.2598 13.7507 22.8154 19.0397 26.39V26.39Z" stroke="#EC1115" stroke-width="1.5" stroke-linecap="round" stroke-linejoin="round"/>
</svg>
